@startuml
set namespaceSeparator ::
note as N1
Contains all of the M2T transforms for all supported backendsUML Representation of model:

UML representation:

\image html dogen.text/modeling/dogen.text.svg
end note

class registrar <<masd::serialization::type_registrar>> #00FF00 {
}

class main <<masd::entry_point, dogen::untypable>> #DDA9F3 {
}

class CMakeLists <<masd::build::cmakelists, dogen::handcrafted::cmake>> #99CB99 {
}

class initializer <<dogen::handcrafted::typeable>> #FFFACD {
}

class csharp_transform_implementation <<masd::templating::logic_less_templates>> #FFC072 {
    +{field} content
}

class csharp_helper_transform_implementation <<masd::templating::logic_less_templates>> #FFC072 {
    +{field} content
}

class cpp_artefact_transform_implementation <<masd::templating::logic_less_templates>> #FFC072 {
    +{field} content
}

class cpp_helper_transform_implementation <<masd::templating::logic_less_templates>> #FFC072 {
    +{field} content
}

class cpp_helper_transform_implementation_enabled <<masd::templating::logic_less_templates>> #FFC072 {
    +{field} content
}

namespace entities #F2F2F2 {
    class Provenance <<masd::object_template>> #E3B6F6 {
        +{field} provenance identification::entities::logical_provenance
    }

    note top of Provenance
Details of the origin of this model element.
    end note

    class model_set <<Provenance>> #F7E5FF {
        +{field} models std::list<model>
    }

    model_set o-- model

    note top of model_set
Represents a set of related models.
    end note

    class model <<Provenance>> #F7E5FF {
        +{field} logical logical::entities::model
        +{field} physical physical::entities::model
        +{field} logical_physical_regions std::list<logical_physical_region>
    }

    model_set o-- logical_physical_region

    note top of model
Represents the combined logical-physical space.
    end note

    class logical_physical_region #F7E5FF {
        +{field} logical_element boost::shared_ptr<logical::entities::element>
        +{field} physical_region physical::entities::region
    }

    note top of logical_physical_region
Represents a region of logical-physical space with a single logical element and
its associated physical elements.
    end note

}

namespace transforms #F2F2F2 {
    note as transforms_1
Contains all of the text transforms available.
    end note

    class model_to_text_chain <<dogen::handcrafted::typeable>> #FFFACD {
    }

    class model_generation_chain <<dogen::handcrafted::typeable>> #FFFACD {
    }

    class context <<dogen::typeable, dogen::pretty_printable>> #F7E5FF {
        +{field} physical_meta_model boost::shared_ptr<physical::entities::meta_model>
        +{field} output_directory_path boost::filesystem::path
        +{field} tracer boost::shared_ptr<tracing::tracer>
        +{field} generation_timestamp std::string
    }

    class transformation_error <<masd::exception>> #E8C2F8 {
    }

    note top of transformation_error
An error occurred whilst applying a transformation.
    end note

    class registrar_error <<masd::exception>> #E8C2F8 {
    }

    class model_to_text_transform <<dogen::handcrafted::typeable, dogen::pretty_printable>> #FFFACD {
    }

    class helper_transform <<dogen::handcrafted::typeable, dogen::pretty_printable>> #FFFACD {
    }

    class helper_chain <<dogen::handcrafted::typeable>> #FFFACD {
        +{field} physical_model physical::entities::meta_model
    }

    class helper_repository <<dogen::typeable, dogen::pretty_printable>> #F7E5FF {
        +{field} helpers_by_family std::unordered_map<std::string, std::unordered_map<identification::entities::physical_meta_id, std::list<std::shared_ptr<helper_transform>>>>
    }

    class helper_registrar <<dogen::handcrafted::typeable>> #FFFACD {
        +{field} repository helper_repository
    }

    class initializer <<dogen::handcrafted::typeable>> #FFFACD {
    }

    class text_transform_repository <<dogen::typeable, dogen::pretty_printable>> #F7E5FF {
        +{field} model_to_text_transforms_by_meta_name std::unordered_map<identification::entities::logical_meta_id, std::forward_list<std::shared_ptr<model_to_text_transform>>>
    }

    class text_transform_registrar <<dogen::handcrafted::typeable>> #FFFACD {
    }

    namespace transforms::cpp <<masd::physical::backend>> #EBFAF1 {
        note as cpp_1
Text transforms that implement the C++ backend.

Provides a set of M2T transforms that convert logical model elements into a
physical representation in the C++ technical space, or associated minor
technical spaces.
        end note

        class implementation <<masd::physical::part>> #43CD80 {
            +{field} external_modules_path_contribution
            +{field} model_modules_path_contribution
            +{field} facet_path_contribution
            +{field} requires_relative_path
            +{field} directory_name
        }

        implementation o-l- public_headers

        note top of implementation
Contains the implementation files.
        end note

        class public_headers <<masd::physical::part>> #43CD80 {
            +{field} external_modules_path_contribution
            +{field} model_modules_path_contribution
            +{field} facet_path_contribution
            +{field} requires_relative_path
            +{field} directory_name
        }

        public_headers o-l- testing

        note top of public_headers
Contains the header files that are publicly visible.
        end note

        class testing <<masd::physical::part>> #43CD80 {
            +{field} external_modules_path_contribution
            +{field} model_modules_path_contribution
            +{field} facet_path_contribution
            +{field} requires_relative_path
            +{field} directory_name
        }

        testing o-l- standard_header_file

        note top of testing
Contains the generated test files.
        end note

        class standard_header_file <<masd::physical::archetype_kind>> #68D799 {
            +{field} file_extension
        }

        note top of standard_header_file
Header file generated by Dogen.
        end note

        class base_archetype_configuration <<masd::variability::profile>> #DDECEC {
            +{field} masd.physical.technical_space
        }

        note top of base_archetype_configuration
Contains the configuration common to all archetypes.
        end note

        class tests_configuration <<masd::variability::profile>> #DDECEC {
            +{field} masd.physical.part_id
            +{field} masd.physical.wale_template_reference
            +{field} masd.physical.relation_status
        }

        transforms::cpp::base_archetype_configuration <|-- transforms::cpp::tests_configuration
        note top of tests_configuration
Contains the configuration common to most archetypes in tests.
        end note

        class header_configuration <<masd::variability::profile>> #DDECEC {
            +{field} masd.physical.part_id
            +{field} masd.physical.wale_template_reference
        }

        transforms::cpp::base_archetype_configuration <|-- transforms::cpp::header_configuration
        note top of header_configuration
Contains the configuration common to all c++ header archetypes.
        end note

        class header_facet_default_configuration <<masd::variability::profile>> #DDECEC {
            +{field} masd.physical.relation_status
        }

        transforms::cpp::header_configuration <|-- transforms::cpp::header_facet_default_configuration
        class enumeration_header_configuration <<masd::variability::profile>> #DDECEC {
            +{field} masd.physical.logical_meta_element_id
            +{field} masd.wale.kvp.archetype.simple_name
        }

        transforms::cpp::header_facet_default_configuration <|-- transforms::cpp::enumeration_header_configuration
        note top of enumeration_header_configuration
Contains the configuration common to all enumeration header archetypes.
        end note

        class object_header_configuration <<masd::variability::profile>> #DDECEC {
            +{field} masd.physical.logical_meta_element_id
            +{field} masd.wale.kvp.archetype.simple_name
        }

        transforms::cpp::header_facet_default_configuration <|-- transforms::cpp::object_header_configuration
        note top of object_header_configuration
Contains the configuration common to all object header archetypes.
        end note

        class primitive_header_configuration <<masd::variability::profile>> #DDECEC {
            +{field} masd.physical.logical_meta_element_id
            +{field} masd.wale.kvp.archetype.simple_name
        }

        transforms::cpp::header_facet_default_configuration <|-- transforms::cpp::primitive_header_configuration
        note top of primitive_header_configuration
Contains the configuration common to all built header archetypes.
        end note

        class builtin_header_configuration <<masd::variability::profile>> #DDECEC {
            +{field} masd.physical.logical_meta_element_id
            +{field} masd.wale.kvp.archetype.simple_name
        }

        transforms::cpp::header_facet_default_configuration <|-- transforms::cpp::builtin_header_configuration
        note top of builtin_header_configuration
Contains the configuration common to all built header archetypes.
        end note

        class implementation_configuration <<masd::variability::profile>> #DDECEC {
            +{field} masd.physical.part_id
            +{field} masd.physical.wale_template_reference
            +{field} masd.physical.relation_status
        }

        transforms::cpp::base_archetype_configuration <|-- transforms::cpp::implementation_configuration
        note top of implementation_configuration
Contains the configuration common to all c++ implementation archetypes.
        end note

        class object_implementation_configuration <<masd::variability::profile>> #DDECEC {
            +{field} masd.physical.logical_meta_element_id
            +{field} masd.wale.kvp.archetype.simple_name
        }

        transforms::cpp::implementation_configuration <|-- transforms::cpp::object_implementation_configuration
        class primitive_implementation_configuration <<masd::variability::profile>> #DDECEC {
            +{field} masd.physical.logical_meta_element_id
            +{field} masd.wale.kvp.archetype.simple_name
        }

        transforms::cpp::implementation_configuration <|-- transforms::cpp::primitive_implementation_configuration
        class enumeration_implementation_configuration <<masd::variability::profile>> #DDECEC {
            +{field} masd.physical.logical_meta_element_id
            +{field} masd.wale.kvp.archetype.simple_name
        }

        transforms::cpp::implementation_configuration <|-- transforms::cpp::enumeration_implementation_configuration
        namespace transforms::cpp::types <<masd::physical::facet>> #C6F0D8 {
            note as types_1
M2T transforms for the types facet of the
C++ technical space.
            end note

            class initializer <<dogen::handcrafted::typeable>> #FFFACD {
            }

            initializer o-d- smart_pointer_helper

            class archetype_class_header_transform <<masd::physical::archetype, dogen::header_facet_default_configuration>> #68D799 {
                +{field} stitch_template_content
            }

            note top of archetype_class_header_transform
Generates header files for archetypes.
            end note

            class archetype_class_implementation_transform <<masd::physical::archetype, dogen::implementation_configuration>> #68D799 {
                +{field} stitch_template_content
            }

            archetype_class_implementation_transform o-d- archetype_class_header_transform

            note top of archetype_class_implementation_transform
Generates implementation files for archetypes.
            end note

            class archetype_class_header_factory <<masd::physical::archetype, dogen::header_configuration>> #68D799 {
                +{field} stitch_template_content
            }

            archetype_class_header_factory o-d- archetype_class_header_transform

            note top of archetype_class_header_factory
Generates header files for archetype factories.
            end note

            class archetype_class_implementation_factory <<masd::physical::archetype, dogen::implementation_configuration>> #68D799 {
                +{field} stitch_template_content
            }

            archetype_class_implementation_factory  o-d- archetype_class_header_transform

            note top of archetype_class_implementation_factory
Generates implementation files for archetype factories.
            end note

            class facet_class_header_transform <<masd::physical::archetype, dogen::header_facet_default_configuration>> #68D799 {
                +{field} stitch_template_content
            }

            note top of facet_class_header_transform
Generates header files for facet transforms.
            end note

            class facet_class_implementation_transform <<masd::physical::archetype, dogen::implementation_configuration>> #68D799 {
                +{field} stitch_template_content
            }

            facet_class_implementation_transform o-d- facet_class_header_transform

            note top of facet_class_implementation_transform
Generates implementation files for facet transforms.
            end note

            class facet_class_header_factory <<masd::physical::archetype, dogen::header_configuration>> #68D799 {
                +{field} stitch_template_content
            }

            facet_class_header_factory o-d- facet_class_header_transform

            note top of facet_class_header_factory
Generates header files for facet factories.
            end note

            class facet_class_implementation_factory <<masd::physical::archetype, dogen::implementation_configuration>> #68D799 {
                +{field} stitch_template_content
            }

            facet_class_implementation_factory o-d- facet_class_header_transform

            note top of facet_class_implementation_factory
Generates implementation files for facet factory.
            end note

            class backend_class_header_transform <<masd::physical::archetype, dogen::header_facet_default_configuration>> #68D799 {
                +{field} stitch_template_content
            }

            note top of backend_class_header_transform
Generates header files for archetypes.
            end note

            class backend_class_implementation_transform <<masd::physical::archetype, dogen::implementation_configuration>> #68D799 {
                +{field} stitch_template_content
            }

            note top of backend_class_implementation_transform
Generates implementation files for archetypes.
            end note

            class backend_class_header_factory <<masd::physical::archetype, dogen::header_configuration>> #68D799 {
                +{field} stitch_template_content
            }

            note top of backend_class_header_factory
Generates header files for backend factories.
            end note

            class part_class_header_transform <<masd::physical::archetype, dogen::header_facet_default_configuration>> #68D799 {
                +{field} stitch_template_content
            }

            note top of part_class_header_transform
Generates header files for parts.
            end note

            class part_class_header_factory <<masd::physical::archetype, dogen::header_configuration>> #68D799 {
                +{field} stitch_template_content
            }

            note top of part_class_header_factory
Generates header files for part factories.
            end note

            class helper_class_header_transform <<masd::physical::archetype, dogen::header_facet_default_configuration>> #68D799 {
                +{field} stitch_template_content
            }

            note top of helper_class_header_transform
Generates header files for helpers.
            end note

            class helper_class_header_factory <<masd::physical::archetype, dogen::header_configuration>> #68D799 {
                +{field} stitch_template_content
            }

            note top of helper_class_header_factory
Generates header files for helper factories.
            end note

            class archetype_kind_class_header_factory <<masd::physical::archetype, dogen::header_configuration>> #68D799 {
                +{field} stitch_template_content
            }

            note top of archetype_kind_class_header_factory
Generates header files for archetype_kind factories.
            end note

            class smart_pointer_helper <<masd::physical::helper>> #68D7BB {
                +{field} stitch_template_content
            }

            smart_pointer_helper o-d- archetype_class_header_transform

            class backend_class_implementation_factory <<masd::physical::archetype, dogen::implementation_configuration>> #68D799 {
                +{field} stitch_template_content
            }

            note top of backend_class_implementation_factory
Generates implementation files for backend factories.
            end note

            class part_class_implementation_transform <<masd::physical::archetype, dogen::implementation_configuration>> #68D799 {
                +{field} stitch_template_content
            }

            note top of part_class_implementation_transform
Generates implementation files for parts.
            end note

            class part_class_implementation_factory <<masd::physical::archetype, dogen::implementation_configuration>> #68D799 {
                +{field} stitch_template_content
            }

            note top of part_class_implementation_factory
Generates implementation files for part factories.
            end note

            class helper_class_implementation_transform <<masd::physical::archetype, dogen::implementation_configuration>> #68D799 {
                +{field} stitch_template_content
            }

            note top of helper_class_implementation_transform
Generates implementation files for helpers.
            end note

            class helper_class_implementation_factory <<masd::physical::archetype, dogen::implementation_configuration>> #68D799 {
                +{field} stitch_template_content
            }

            note top of helper_class_implementation_factory
Generates implementation files for helper factories.
            end note

            class archetype_kind_class_implementation_factory <<masd::physical::archetype, dogen::implementation_configuration>> #68D799 {
                +{field} stitch_template_content
            }

            note top of archetype_kind_class_implementation_factory
Generates implementation files for archetype_kind factories.
            end note

            class class_header <<masd::physical::archetype, dogen::object_header_configuration>> #68D799 {
                +{field} stitch_template_content
            }

            note top of class_header
Generates header files for objects.
            end note

            class class_forward_declarations <<masd::physical::archetype, dogen::header_configuration>> #68D799 {
                +{field} stitch_template_content
            }

            note top of class_forward_declarations
Generates forward declarations for classes.
            end note

            class namespace_header <<masd::physical::archetype, dogen::header_facet_default_configuration>> #68D799 {
                +{field} stitch_template_content
            }

            note top of namespace_header
Generates header files for namespaces.
            end note

            class visitor_header <<masd::physical::archetype, dogen::header_facet_default_configuration>> #68D799 {
                +{field} stitch_template_content
            }

            note top of visitor_header
Generates header files for visitors.
            end note

            class primitive_header <<masd::physical::archetype, dogen::primitive_header_configuration>> #68D799 {
                +{field} stitch_template_content
            }

            note top of primitive_header
Generates header files for primitives.
            end note

            class primitive_forward_declarations <<masd::physical::archetype, dogen::header_configuration>> #68D799 {
                +{field} stitch_template_content
            }

            note top of primitive_forward_declarations
Generates forward declarations for primitives.
            end note

            class feature_template_bundle_header <<masd::physical::archetype, dogen::header_facet_default_configuration>> #68D799 {
                +{field} stitch_template_content
            }

            note top of feature_template_bundle_header
Generates implementation files for feature template bundles
            end note

            class feature_bundle_header <<masd::physical::archetype, dogen::header_facet_default_configuration>> #68D799 {
                +{field} stitch_template_content
            }

            note top of feature_bundle_header
Generates header files for feature bundles.
            end note

            class variability_initializer_header <<masd::physical::archetype, dogen::header_facet_default_configuration>> #68D799 {
                +{field} stitch_template_content
            }

            note top of variability_initializer_header
Generates header files for feature bundles.
            end note

            class main <<masd::physical::archetype, dogen::implementation_configuration>> #68D799 {
                +{field} stitch_template_content
            }

            note top of main
Generates implementation file for entry point.
            end note

            class class_implementation <<masd::physical::archetype, dogen::object_implementation_configuration>> #68D799 {
                +{field} stitch_template_content
            }

            note top of class_implementation
Generates implementation files for objects.
            end note

            class exception_header <<masd::physical::archetype, dogen::header_facet_default_configuration>> #68D799 {
                +{field} stitch_template_content
            }

            note top of exception_header
Generates header files for exceptions.
            end note

            class enum_header <<masd::physical::archetype, dogen::enumeration_header_configuration>> #68D799 {
                +{field} stitch_template_content
            }

            note top of enum_header
Generates header files for enumerations.
            end note

            class visitor_forward_declarations <<masd::physical::archetype, dogen::header_configuration>> #68D799 {
                +{field} stitch_template_content
            }

            note top of visitor_forward_declarations
Generates forward declarations for visitors.
            end note

            class primitive_implementation <<masd::physical::archetype, dogen::primitive_implementation_configuration>> #68D799 {
                +{field} stitch_template_content
            }

            note top of primitive_implementation
Generates implementation files for primitives.
            end note

            class builtin_header <<masd::physical::archetype, dogen::builtin_header_configuration>> #68D799 {
                +{field} stitch_template_content
            }

            note top of builtin_header
Generates header files for builtins.
            end note

            class feature_template_bundle_implementation <<masd::physical::archetype, dogen::implementation_configuration>> #68D799 {
                +{field} stitch_template_content
            }

            note top of feature_template_bundle_implementation
Generates implementation files for feature templates.
            end note

            class feature_bundle_implementation <<masd::physical::archetype, dogen::implementation_configuration>> #68D799 {
                +{field} stitch_template_content
            }

            note top of feature_bundle_implementation
Generates implementation files for feature bundles.
            end note

            class variability_initializer_implementation <<masd::physical::archetype, dogen::implementation_configuration>> #68D799 {
                +{field} stitch_template_content
            }

            note top of variability_initializer_implementation
Generates header files for feature bundles.
            end note

        }

        namespace transforms::cpp::hash <<masd::physical::facet>> #C6F0D8 {
            note as hash_1
M2T transforms for the hash facet of the
C++ technical space.
            end note

            class initializer <<dogen::handcrafted::typeable>> #FFFACD {
            }

            class date_helper <<masd::physical::helper>> #68D7BB {
                +{field} stitch_template_content
            }

            class ptime_helper <<masd::physical::helper>> #68D7BB {
                +{field} stitch_template_content
            }

            class associative_container_helper <<masd::physical::helper>> #68D7BB {
                +{field} stitch_template_content
            }

            class optional_helper <<masd::physical::helper>> #68D7BB {
                +{field} stitch_template_content
            }

            class sequence_container_helper <<masd::physical::helper>> #68D7BB {
                +{field} stitch_template_content
            }

            class variant_helper <<masd::physical::helper>> #68D7BB {
                +{field} stitch_template_content
            }

            class time_duration_helper <<masd::physical::helper>> #68D7BB {
                +{field} stitch_template_content
            }

            class ptree_helper <<masd::physical::helper>> #68D7BB {
                +{field} stitch_template_content
            }

            class pair_helper <<masd::physical::helper>> #68D7BB {
                +{field} stitch_template_content
            }

            class smart_pointer_helper <<masd::physical::helper>> #68D7BB {
                +{field} stitch_template_content
            }

            class path_helper <<masd::physical::helper>> #68D7BB {
                +{field} stitch_template_content
            }

            class class_header <<masd::physical::archetype, dogen::object_header_configuration>> #68D799 {
                +{field} stitch_template_content
            }

            note top of class_header
Generates header files for objects.
            end note

            class class_implementation <<masd::physical::archetype, dogen::object_implementation_configuration>> #68D799 {
                +{field} stitch_template_content
            }

            note top of class_implementation
Generates implementation files for objects.
            end note

            class enum_header <<masd::physical::archetype>> #68D799 {
                +{field} stitch_template_content
            }

            note top of enum_header
Generates header files for enumerations.
            end note

            class builtin_header <<masd::physical::archetype, dogen::builtin_header_configuration>> #68D799 {
                +{field} stitch_template_content
            }

            note top of builtin_header
Generates header files for builtins.
            end note

            class primitive_header <<masd::physical::archetype, dogen::primitive_header_configuration>> #68D799 {
                +{field} stitch_template_content
            }

            note top of primitive_header
Generates header files for primitives.
            end note

            class primitive_implementation <<masd::physical::archetype, dogen::primitive_implementation_configuration>> #68D799 {
                +{field} stitch_template_content
            }

            note top of primitive_implementation
Generates implementation files for primitives.
            end note

        }

        namespace transforms::cpp::build <<masd::physical::facet>> #C6F0D8 {
            note as build_1
M2T transforms related to build files.
            end note

            class initializer <<dogen::handcrafted::typeable>> #FFFACD {
            }

            class include_cmakelists <<masd::physical::archetype>> #68D799 {
                +{field} stitch_template_content
            }

            note top of include_cmakelists
Generates cmakelists for tests.
            end note

            class source_cmakelists <<masd::physical::archetype>> #68D799 {
                +{field} stitch_template_content
            }

            note top of source_cmakelists
Generates cmakelists for tests.
            end note

        }

        namespace transforms::cpp::io <<masd::physical::facet>> #C6F0D8 {
            note as io_1
M2T transforms for the io facet of the
C++ technical space.
            end note

            class initializer <<dogen::handcrafted::typeable>> #FFFACD {
            }

            class optional_helper <<masd::physical::helper>> #68D7BB {
                +{field} stitch_template_content
            }

            class pair_helper <<masd::physical::helper>> #68D7BB {
                +{field} stitch_template_content
            }

            class string_helper <<masd::physical::helper>> #68D7BB {
                +{field} stitch_template_content
            }

            class ptree_helper <<masd::physical::helper>> #68D7BB {
                +{field} stitch_template_content
            }

            class associative_container_helper <<masd::physical::helper>> #68D7BB {
                +{field} stitch_template_content
            }

            class sequence_container_helper <<masd::physical::helper>> #68D7BB {
                +{field} stitch_template_content
            }

            class smart_pointer_helper <<masd::physical::helper>> #68D7BB {
                +{field} stitch_template_content
            }

            class variant_helper <<masd::physical::helper>> #68D7BB {
                +{field} stitch_template_content
            }

            class inserter_implementation_helper <<dogen::handcrafted::typeable>> #FFFACD {
            }

            class class_header <<masd::physical::archetype, dogen::object_header_configuration>> #68D799 {
                +{field} stitch_template_content
            }

            note top of class_header
Generates header files for objects.
            end note

            class class_implementation <<masd::physical::archetype, dogen::object_implementation_configuration>> #68D799 {
                +{field} stitch_template_content
            }

            note top of class_implementation
Generates implementation files for objects.
            end note

            class enum_header <<masd::physical::archetype, dogen::enumeration_header_configuration>> #68D799 {
                +{field} stitch_template_content
            }

            note top of enum_header
Generates header files for enumerations.
            end note

            class enum_implementation <<masd::physical::archetype, dogen::enumeration_implementation_configuration>> #68D799 {
                +{field} stitch_template_content
            }

            note top of enum_implementation
Generates implementation files for enumerations.
            end note

            class primitive_header <<masd::physical::archetype, dogen::primitive_header_configuration>> #68D799 {
                +{field} stitch_template_content
            }

            note top of primitive_header
Generates header files for primitives.
            end note

            class builtin_header <<masd::physical::archetype, dogen::builtin_header_configuration>> #68D799 {
                +{field} stitch_template_content
            }

            note top of builtin_header
Generates header files for builtins.
            end note

            class primitive_implementation <<masd::physical::archetype, dogen::primitive_implementation_configuration>> #68D799 {
                +{field} stitch_template_content
            }

            note top of primitive_implementation
Generates implementation files for primitives.
            end note

        }

        namespace transforms::cpp::visual_studio <<masd::physical::facet>> #C6F0D8 {
            note as visual_studio_1
M2T transforms related to Visual Studio
support.
            end note

            class initializer <<dogen::handcrafted::typeable>> #FFFACD {
            }

            class solution <<masd::physical::archetype>> #68D799 {
                +{field} stitch_template_content
            }

            note top of solution
Generates visual studio solutions.
            end note

            class msbuild_targets <<masd::physical::archetype>> #68D799 {
                +{field} stitch_template_content
            }

            note top of msbuild_targets
Generates msbuild targets.
            end note

            class project <<masd::physical::archetype>> #68D799 {
                +{field} stitch_template_content
            }

            note top of project
Generates visual studio project.
            end note

        }

        namespace transforms::cpp::serialization <<masd::physical::facet>> #C6F0D8 {
            note as serialization_1
M2T transforms for the boost serialisation
facet of the C++ technical space.
            end note

            class initializer <<dogen::handcrafted::typeable>> #FFFACD {
            }

            class path_helper <<masd::physical::helper>> #68D7BB {
                +{field} stitch_template_content
            }

            class class_header <<masd::physical::archetype, dogen::object_header_configuration>> #68D799 {
                +{field} stitch_template_content
            }

            note top of class_header
Generates header files for objects.
            end note

            class class_forward_declarations <<masd::physical::archetype, dogen::header_configuration>> #68D799 {
                +{field} stitch_template_content
            }

            note top of class_forward_declarations
Generates forward declarations for classes.
            end note

            class primitive_header <<masd::physical::archetype, dogen::primitive_header_configuration>> #68D799 {
                +{field} stitch_template_content
            }

            note top of primitive_header
Generates header files for primitives.
            end note

            class primitive_forward_declarations <<masd::physical::archetype, dogen::header_configuration>> #68D799 {
                +{field} stitch_template_content
            }

            note top of primitive_forward_declarations
Generates forward declarations for primitives.
            end note

            class type_registrar_header <<masd::physical::archetype, dogen::header_facet_default_configuration>> #68D799 {
                +{field} stitch_template_content
            }

            note top of type_registrar_header
Generates header files for type registrars.
            end note

            class class_implementation <<masd::physical::archetype, dogen::object_implementation_configuration>> #68D799 {
                +{field} stitch_template_content
            }

            note top of class_implementation
Generates implementation files for objects.
            end note

            class builtin_header <<masd::physical::archetype, dogen::builtin_header_configuration>> #68D799 {
                +{field} stitch_template_content
            }

            note top of builtin_header
Generates header files for builtins.
            end note

            class primitive_implementation <<masd::physical::archetype, dogen::primitive_implementation_configuration>> #68D799 {
                +{field} stitch_template_content
            }

            note top of primitive_implementation
Generates header files for primitives.
            end note

            class enum_header <<masd::physical::archetype, dogen::enumeration_header_configuration>> #68D799 {
                +{field} stitch_template_content
            }

            note top of enum_header
Generates header files for primitives.
            end note

            class type_registrar_implementation <<masd::physical::archetype, dogen::implementation_configuration>> #68D799 {
                +{field} stitch_template_content
            }

            note top of type_registrar_implementation
Generates header files for feature bundles.
            end note

        }

        namespace transforms::cpp::test_data <<masd::physical::facet>> #C6F0D8 {
            note as test_data_1
M2T transforms for the test data facet
of the C++ technical space.
            end note

            class initializer <<dogen::handcrafted::typeable>> #FFFACD {
            }

            class date_helper <<masd::physical::helper>> #68D7BB {
                +{field} stitch_template_content
            }

            class bool_helper <<masd::physical::helper>> #68D7BB {
                +{field} stitch_template_content
            }

            class char_helper <<masd::physical::helper>> #68D7BB {
                +{field} stitch_template_content
            }

            class ptree_helper <<masd::physical::helper>> #68D7BB {
                +{field} stitch_template_content
            }

            class associative_container_helper <<masd::physical::helper>> #68D7BB {
                +{field} stitch_template_content
            }

            class pair_helper <<masd::physical::helper>> #68D7BB {
                +{field} stitch_template_content
            }

            class number_helper <<masd::physical::helper>> #68D7BB {
                +{field} stitch_template_content
            }

            class variant_helper <<masd::physical::helper>> #68D7BB {
                +{field} stitch_template_content
            }

            class path_helper <<masd::physical::helper>> #68D7BB {
                +{field} stitch_template_content
            }

            class ptime_helper <<masd::physical::helper>> #68D7BB {
                +{field} stitch_template_content
            }

            class optional_helper <<masd::physical::helper>> #68D7BB {
                +{field} stitch_template_content
            }

            class smart_pointer_helper <<masd::physical::helper>> #68D7BB {
                +{field} stitch_template_content
            }

            class sequence_container_helper <<masd::physical::helper>> #68D7BB {
                +{field} stitch_template_content
            }

            class string_helper <<masd::physical::helper>> #68D7BB {
                +{field} stitch_template_content
            }

            class domain_type_helper <<masd::physical::helper>> #68D7BB {
                +{field} stitch_template_content
            }

            class time_duration_helper <<masd::physical::helper>> #68D7BB {
                +{field} stitch_template_content
            }

            class class_header <<masd::physical::archetype, dogen::object_header_configuration>> #68D799 {
                +{field} stitch_template_content
            }

            note top of class_header
Generates header files for objects.
            end note

            class enum_header <<masd::physical::archetype, dogen::enumeration_header_configuration>> #68D799 {
                +{field} stitch_template_content
            }

            note top of enum_header
Generates header files for enumerations.
            end note

            class primitive_header <<masd::physical::archetype, dogen::primitive_header_configuration>> #68D799 {
                +{field} stitch_template_content
            }

            note top of primitive_header
Generates header files for primitives.
            end note

            class builtin_header <<masd::physical::archetype, dogen::builtin_header_configuration>> #68D799 {
                +{field} stitch_template_content
            }

            note top of builtin_header
Generates header files for builtins.
            end note

            class class_implementation <<masd::physical::archetype, dogen::object_implementation_configuration>> #68D799 {
                +{field} stitch_template_content
            }

            note top of class_implementation
Generates implementation files for objects.
            end note

            class enum_implementation <<masd::physical::archetype, dogen::enumeration_implementation_configuration>> #68D799 {
                +{field} stitch_template_content
            }

            note top of enum_implementation
Generates implementation files for enumerations.
            end note

            class primitive_implementation <<masd::physical::archetype, dogen::primitive_implementation_configuration>> #68D799 {
                +{field} stitch_template_content
            }

            note top of primitive_implementation
Generates implementation files for primitives.
            end note

        }

        namespace transforms::cpp::tests <<masd::physical::facet>> #C6F0D8 {
            note as tests_1
M2T transforms that generate tests for
generated code, in the C++ technical space.
            end note

            class initializer <<dogen::handcrafted::typeable>> #FFFACD {
            }

            class class_implementation <<masd::physical::archetype, dogen::tests_configuration>> #68D799 {
                +{field} stitch_template_content
            }

            note top of class_implementation
Generates tests for objects.
            end note

            class main <<masd::physical::archetype, dogen::tests_configuration>> #68D799 {
                +{field} stitch_template_content
            }

            note top of main
Generates entry point for tests.
            end note

            class enum_implementation <<masd::physical::archetype, dogen::tests_configuration>> #68D799 {
                +{field} stitch_template_content
            }

            note top of enum_implementation
Generates tests for enumeration.
            end note

            class cmakelists <<masd::physical::archetype>> #68D799 {
                +{field} stitch_template_content
            }

            note top of cmakelists
Generates cmakelists for tests.
            end note

        }

        namespace transforms::cpp::odb <<masd::physical::facet>> #C6F0D8 {
            note as odb_1
M2T transforms for the ODB facet of the
C++ technical space.
            end note

            class initializer <<dogen::handcrafted::typeable>> #FFFACD {
            }

            class class_header <<masd::physical::archetype, dogen::object_header_configuration>> #68D799 {
                +{field} stitch_template_content
            }

            note top of class_header
Generates header files for archetypes.
            end note

            class builtin_header <<masd::physical::archetype, dogen::builtin_header_configuration>> #68D799 {
                +{field} stitch_template_content
            }

            note top of builtin_header
Generates header files for builtins.
            end note

            class enum_header <<masd::physical::archetype, dogen::enumeration_header_configuration>> #68D799 {
                +{field} stitch_template_content
            }

            note top of enum_header
Generates header files for enumerations.
            end note

            class primitive_header <<masd::physical::archetype, dogen::primitive_header_configuration>> #68D799 {
                +{field} stitch_template_content
            }

            note top of primitive_header
Generates header files for primitives.
            end note

            class object_odb_options <<masd::physical::archetype>> #68D799 {
                +{field} stitch_template_content
            }

            note top of object_odb_options
Generates object options for odb.
            end note

            class primitive_odb_options <<masd::physical::archetype>> #68D799 {
                +{field} stitch_template_content
            }

            note top of primitive_odb_options
Generates object options for odb.
            end note

            class common_odb_options <<masd::physical::archetype>> #68D799 {
                +{field} stitch_template_content
            }

            note top of common_odb_options
Generates object options for odb.
            end note

        }

        namespace transforms::cpp::lexical_cast <<masd::physical::facet>> #C6F0D8 {
            note as lexical_cast_1
M2T transforms related to conversions from
and to string.
            end note

            class initializer <<dogen::handcrafted::typeable>> #FFFACD {
            }

            class enum_header <<masd::physical::archetype, dogen::enumeration_header_configuration>> #68D799 {
                +{field} stitch_template_content
            }

            note top of enum_header
Generates header files for enumerations.
            end note

        }

        class initializer <<dogen::handcrafted::typeable>> #FFFACD {
        }

        class project <<masd::physical::part>> #43CD80 {
            +{field} external_modules_path_contribution
            +{field} model_modules_path_contribution
            +{field} facet_path_contribution
            +{field} requires_relative_path
        }

        note top of project
FIXME: to be removed.
        end note

    }

    namespace transforms::csharp <<masd::physical::backend>> #EBFAF1 {
        note as csharp_1
M2T transforms for the C# technical space.

Takes types in the logical model and creates text
representations of the these types according to the grammar
of the C# technical space.
        end note

        class archetype_configuration <<masd::variability::profile>> #DDECEC {
            +{field} masd.physical.part_id
            +{field} masd.physical.wale_template_reference
            +{field} masd.physical.relation_status
            +{field} masd.physical.technical_space
        }

        note top of archetype_configuration
Contains the configuration common to all archetypes.
        end note

        class primitive_configuration <<masd::variability::profile>> #DDECEC {
            +{field} masd.physical.logical_meta_element_id
            +{field} masd.wale.kvp.archetype.simple_name
        }

        transforms::csharp::archetype_configuration <|-- transforms::csharp::primitive_configuration
        note top of primitive_configuration
Contains the configuration common to all archetypes.
        end note

        class enumeration_configuration <<masd::variability::profile>> #DDECEC {
            +{field} masd.physical.logical_meta_element_id
            +{field} masd.wale.kvp.archetype.simple_name
        }

        transforms::csharp::archetype_configuration <|-- transforms::csharp::enumeration_configuration
        note top of enumeration_configuration
Contains the configuration common to all archetypes.
        end note

        class object_configuration <<masd::variability::profile>> #DDECEC {
            +{field} masd.physical.logical_meta_element_id
            +{field} masd.wale.kvp.archetype.simple_name
        }

        transforms::csharp::archetype_configuration <|-- transforms::csharp::object_configuration
        note top of object_configuration
Contains the configuration common to all archetypes.
        end note

        class exception_configuration <<masd::variability::profile>> #DDECEC {
            +{field} masd.physical.logical_meta_element_id
            +{field} masd.wale.kvp.archetype.simple_name
        }

        transforms::csharp::archetype_configuration <|-- transforms::csharp::exception_configuration
        note top of exception_configuration
Contains the configuration common to all archetypes.
        end note

        class builtin_configuration <<masd::variability::profile>> #DDECEC {
            +{field} masd.physical.logical_meta_element_id
            +{field} masd.wale.kvp.archetype.simple_name
        }

        transforms::csharp::archetype_configuration <|-- transforms::csharp::builtin_configuration
        note top of builtin_configuration
Contains the configuration common to all archetypes.
        end note

        class implementation <<masd::physical::part>> #43CD80 {
            +{field} external_modules_path_contribution
            +{field} model_modules_path_contribution
            +{field} facet_path_contribution
            +{field} requires_relative_path
        }

        note top of implementation
Contains the implementation files.
        end note

        namespace transforms::csharp::types <<masd::physical::facet>> #C6F0D8 {
            note as types_1
M2T transforms for the types facet of
the C# technical space.
            end note

            class initializer <<dogen::handcrafted::typeable>> #FFFACD {
            }

            class floating_point_number_helper <<masd::physical::helper>> #68D7BB {
                +{field} stitch_template_content
            }

            class class <<masd::physical::archetype, dogen::object_configuration>> #68D799 {
                +{field} stitch_template_content
            }

            note top of class
Generates implementation files for objects.
            end note

            class exception <<masd::physical::archetype, dogen::exception_configuration>> #68D799 {
                +{field} stitch_template_content
            }

            note top of exception
Generates implementation files for exceptions.
            end note

            class builtin <<masd::physical::archetype, dogen::builtin_configuration>> #68D799 {
                +{field} stitch_template_content
            }

            note top of builtin
Generates implementation files for builtins.
            end note

            class enum <<masd::physical::archetype, dogen::enumeration_configuration>> #68D799 {
                +{field} stitch_template_content
            }

            note top of enum
Generates implementation files for enums.
            end note

            class primitive <<masd::physical::archetype, dogen::primitive_configuration>> #68D799 {
                +{field} stitch_template_content
            }

            note top of primitive
Generates implementation files for primitives.
            end note

        }

        namespace transforms::csharp::io <<masd::physical::facet>> #C6F0D8 {
            note as io_1
M2T transforms for the io facet of the
C# technical space.
            end note

            class initializer <<dogen::handcrafted::typeable>> #FFFACD {
            }

            class enumerable_helper <<masd::physical::helper>> #68D7BB {
                +{field} stitch_template_content
            }

            class class <<masd::physical::archetype, dogen::object_configuration>> #68D799 {
                +{field} stitch_template_content
            }

            note top of class
Generates implementation files for objects.
            end note

            class enum <<masd::physical::archetype, dogen::enumeration_configuration>> #68D799 {
                +{field} stitch_template_content
            }

            note top of enum
Generates implementation files for enums.
            end note

            class primitive <<masd::physical::archetype, dogen::primitive_configuration>> #68D799 {
                +{field} stitch_template_content
            }

            note top of primitive
Generates implementation files for primitives.
            end note

            class assistant <<masd::physical::archetype, dogen::archetype_configuration>> #68D799 {
                +{field} stitch_template_content
            }

            note top of assistant
Generates implementation files for assistants.
            end note

        }

        namespace transforms::csharp::test_data <<masd::physical::facet>> #C6F0D8 {
            note as test_data_1
M2T transforms for the test data facet of
the C# technical space.
            end note

            class initializer <<dogen::handcrafted::typeable>> #FFFACD {
            }

            class class <<masd::physical::archetype, dogen::object_configuration>> #68D799 {
                +{field} stitch_template_content
            }

            note top of class
Generates implementation files for objects.
            end note

            class assistant <<masd::physical::archetype, dogen::archetype_configuration>> #68D799 {
                +{field} stitch_template_content
            }

            note top of assistant
Generates implementation files for assistants.
            end note

            class enum <<masd::physical::archetype, dogen::enumeration_configuration>> #68D799 {
                +{field} stitch_template_content
            }

            note top of enum
Generates implementation files for enums.
            end note

            class primitive <<masd::physical::archetype, dogen::primitive_configuration>> #68D799 {
                +{field} stitch_template_content
            }

            note top of primitive
Generates implementation files for primitives.
            end note

        }

        namespace transforms::csharp::visual_studio <<masd::physical::facet>> #C6F0D8 {
            note as visual_studio_1
M2T transforms for the visual studio
facet of the C# technical space.
            end note

            class initializer <<dogen::handcrafted::typeable>> #FFFACD {
            }

            class project <<masd::physical::archetype>> #68D799 {
                +{field} stitch_template_content
            }

            note top of project
Generates visual studio project.
            end note

            class solution <<masd::physical::archetype>> #68D799 {
                +{field} stitch_template_content
            }

            note top of solution
Generates visual studio solutions.
            end note

        }

        class initializer <<dogen::handcrafted::typeable>> #FFFACD {
        }

    }

}

namespace formatters #F2F2F2 {
    class formatting_error <<masd::exception>> #E8C2F8 {
    }

    note top of formatting_error
An error has occurred while formatting.
    end note

    class namespace_formatter <<dogen::handcrafted::typeable>> #FFFACD {
    }

    class scoped_namespace_formatter <<dogen::handcrafted::typeable>> #FFFACD {
    }

    class boilerplate_formatter <<dogen::handcrafted::typeable>> #FFFACD {
    }

    class scoped_boilerplate_formatter <<dogen::handcrafted::typeable>> #FFFACD {
    }

    class dependencies_formatter <<dogen::handcrafted::typeable>> #FFFACD {
    }

    class header_guard_formatter <<dogen::handcrafted::typeable>> #FFFACD {
    }

    class boilerplate_properties #F7E5FF {
        +{field} preamble std::string
        +{field} postamble std::string
        +{field} dependencies std::list<std::string>
        +{field} header_guard std::string
        +{field} technical_space identification::entities::technical_space
        +{field} generate_preamble bool
        +{field} generate_header_guards bool
    }

    class assistant <<dogen::handcrafted::typeable>> #FFFACD {
    }

}

@enduml
